HIERARCHY
ROOT hips
{
	OFFSET 0.000000 104.274902 0.000000
	CHANNELS 6 Xposition Yposition Zposition Xrotation Yrotation Zrotation
	JOINT spine
	{
		OFFSET 0.000000 10.181549 0.131524
		CHANNELS 6 Xposition Yposition Zposition Xrotation Yrotation Zrotation
		JOINT chest
		{
			OFFSET 0.000000 9.893990 -1.470706
			CHANNELS 3 Xrotation Yrotation Zrotation
			JOINT upperChest
			{
				OFFSET 0.000000 9.220787 -1.370637
				CHANNELS 3 Xrotation Yrotation Zrotation
				JOINT neck
				{
					OFFSET 0.000000 16.740372 -2.049022
					CHANNELS 6 Xposition Yposition Zposition Xrotation Yrotation Zrotation
					JOINT head
					{
						OFFSET 0.000000 9.617859 1.684976
						CHANNELS 6 Xposition Yposition Zposition Xrotation Yrotation Zrotation
						JOINT headEnd
						{
							OFFSET 0.000000 22.037384 7.501072
							CHANNELS 6 Xposition Yposition Zposition Xrotation Yrotation Zrotation
							End Site
							{
								OFFSET 0.000000 23.106567 -2.828246
							}
						}
					}
				}
				JOINT rightShoulder
				{
					OFFSET -4.570000 11.014877 -2.160840
					CHANNELS 6 Xposition Yposition Zposition Xrotation Yrotation Zrotation
					JOINT rightUpperArm
					{
						OFFSET -10.592867 -0.524796 -2.232105
						CHANNELS 3 Xrotation Yrotation Zrotation
						JOINT rightLowerArm
						{
							OFFSET -27.841497 0.000000 -0.000002
							CHANNELS 3 Xrotation Yrotation Zrotation
							JOINT rightHand
							{
								OFFSET -28.328812 0.000000 -0.000001
								CHANNELS 3 Xrotation Yrotation Zrotation
								JOINT rightThumbProximal
								{
									OFFSET -2.464798 -1.573990 2.681911
									CHANNELS 6 Xposition Yposition Zposition Xrotation Yrotation Zrotation
									JOINT rightThumbIntermediate
									{
										OFFSET -3.244781 -1.873383 1.873376
										CHANNELS 3 Xrotation Yrotation Zrotation
										JOINT rightThumbDistal
										{
											OFFSET -2.646263 -1.527817 1.527818
											CHANNELS 6 Xposition Yposition Zposition Xrotation Yrotation Zrotation
											JOINT rightHandThumb4
											{
												OFFSET -1.994591 -1.151581 1.151575
												CHANNELS 6 Xposition Yposition Zposition Xrotation Yrotation Zrotation
												End Site
												{
													OFFSET -1.860176 -1.142715 1.365483
												}
											}
										}
									}
								}
								JOINT rightIndexProximal
								{
									OFFSET -9.108299 -0.517883 2.259803
									CHANNELS 6 Xposition Yposition Zposition Xrotation Yrotation Zrotation
									JOINT rightIndexIntermediate
									{
										OFFSET -3.699997 0.000000 0.000000
										CHANNELS 3 Xrotation Yrotation Zrotation
										JOINT rightIndexDistal
										{
											OFFSET -2.850006 0.000000 0.000000
											CHANNELS 3 Xrotation Yrotation Zrotation
											JOINT rightHandIndex4
											{
												OFFSET -2.772194 0.000000 0.000000
												CHANNELS 3 Xrotation Yrotation Zrotation
												End Site
												{
													OFFSET -2.772202 0.000000 -0.000484
												}
											}
										}
									}
								}
								JOINT rightMiddleProximal
								{
									OFFSET -9.532501 0.000000 -0.000000
									CHANNELS 6 Xposition Yposition Zposition Xrotation Yrotation Zrotation
									JOINT rightMiddleIntermediate
									{
										OFFSET -3.699997 0.000000 0.000000
										CHANNELS 3 Xrotation Yrotation Zrotation
										JOINT rightMiddleDistal
										{
											OFFSET -2.949997 0.000000 0.000000
											CHANNELS 3 Xrotation Yrotation Zrotation
											JOINT rightHandMiddle4
											{
												OFFSET -2.946594 0.000000 0.000000
												CHANNELS 3 Xrotation Yrotation Zrotation
												End Site
												{
													OFFSET -2.946602 0.000000 -0.000982
												}
											}
										}
									}
								}
								JOINT rightRingProximal
								{
									OFFSET -9.103600 -0.043106 -1.865100
									CHANNELS 6 Xposition Yposition Zposition Xrotation Yrotation Zrotation
									JOINT rightRingIntermediate
									{
										OFFSET -3.379303 0.000000 0.000000
										CHANNELS 3 Xrotation Yrotation Zrotation
										JOINT rightRingDistal
										{
											OFFSET -2.889694 0.000000 0.000000
											CHANNELS 3 Xrotation Yrotation Zrotation
											JOINT rightHandRing4
											{
												OFFSET -2.638802 0.000000 0.000000
												CHANNELS 3 Xrotation Yrotation Zrotation
												End Site
												{
													OFFSET -2.638802 0.000000 0.004218
												}
											}
										}
									}
								}
								JOINT rightLittleProximal
								{
									OFFSET -8.076698 -0.486725 -3.806299
									CHANNELS 6 Xposition Yposition Zposition Xrotation Yrotation Zrotation
									JOINT rightLittleIntermediate
									{
										OFFSET -3.600006 0.000000 0.000000
										CHANNELS 3 Xrotation Yrotation Zrotation
										JOINT rightLittleDistal
										{
											OFFSET -2.099998 0.000000 0.000000
											CHANNELS 3 Xrotation Yrotation Zrotation
											JOINT rightHandPinky4
											{
												OFFSET -2.115791 0.000000 0.000000
												CHANNELS 3 Xrotation Yrotation Zrotation
												End Site
												{
													OFFSET -2.115799 0.000000 0.000174
												}
											}
										}
									}
								}
							}
						}
					}
				}
				JOINT leftShoulder
				{
					OFFSET 4.570400 11.014679 -2.160816
					CHANNELS 6 Xposition Yposition Zposition Xrotation Yrotation Zrotation
					JOINT leftUpperArm
					{
						OFFSET 10.592373 -0.524597 -2.232116
						CHANNELS 3 Xrotation Yrotation Zrotation
						JOINT leftLowerArm
						{
							OFFSET 27.841488 0.000000 0.000001
							CHANNELS 3 Xrotation Yrotation Zrotation
							JOINT leftHand
							{
								OFFSET 28.328808 0.000000 -0.000000
								CHANNELS 3 Xrotation Yrotation Zrotation
								JOINT leftThumbProximal
								{
									OFFSET 2.466103 -1.576202 2.681698
									CHANNELS 6 Xposition Yposition Zposition Xrotation Yrotation Zrotation
									JOINT leftThumbIntermediate
									{
										OFFSET 3.243317 -1.872528 1.872530
										CHANNELS 3 Xrotation Yrotation Zrotation
										JOINT leftThumbDistal
										{
											OFFSET 2.647881 -1.528763 1.528754
											CHANNELS 6 Xposition Yposition Zposition Xrotation Yrotation Zrotation
											JOINT leftHandThumb4
											{
												OFFSET 1.998924 -1.154083 1.154080
												CHANNELS 6 Xposition Yposition Zposition Xrotation Yrotation Zrotation
												End Site
												{
													OFFSET 1.884041 -1.149155 1.337651
												}
											}
										}
									}
								}
								JOINT leftIndexProximal
								{
									OFFSET 9.109299 -0.518005 2.259900
									CHANNELS 6 Xposition Yposition Zposition Xrotation Yrotation Zrotation
									JOINT leftIndexIntermediate
									{
										OFFSET 3.699997 0.000000 0.000000
										CHANNELS 3 Xrotation Yrotation Zrotation
										JOINT leftIndexDistal
										{
											OFFSET 2.850006 0.000000 0.000000
											CHANNELS 3 Xrotation Yrotation Zrotation
											JOINT leftHandIndex4
											{
												OFFSET 2.774895 0.000000 0.000000
												CHANNELS 3 Xrotation Yrotation Zrotation
												End Site
												{
													OFFSET 2.774902 0.000000 -0.000072
												}
											}
										}
									}
								}
								JOINT leftMiddleProximal
								{
									OFFSET 9.533401 0.000000 0.000000
									CHANNELS 6 Xposition Yposition Zposition Xrotation Yrotation Zrotation
									JOINT leftMiddleIntermediate
									{
										OFFSET 3.699997 0.000000 0.000000
										CHANNELS 3 Xrotation Yrotation Zrotation
										JOINT leftMiddleDistal
										{
											OFFSET 2.949997 0.000000 0.000000
											CHANNELS 3 Xrotation Yrotation Zrotation
											JOINT leftHandMiddle4
											{
												OFFSET 2.952896 0.000000 0.000000
												CHANNELS 3 Xrotation Yrotation Zrotation
												End Site
												{
													OFFSET 2.952904 0.000000 0.000165
												}
											}
										}
									}
								}
								JOINT leftRingProximal
								{
									OFFSET 9.104500 -0.042999 -1.865101
									CHANNELS 6 Xposition Yposition Zposition Xrotation Yrotation Zrotation
									JOINT leftRingIntermediate
									{
										OFFSET 3.149994 0.000000 0.000000
										CHANNELS 3 Xrotation Yrotation Zrotation
										JOINT leftRingDistal
										{
											OFFSET 2.950005 0.000000 0.000000
											CHANNELS 3 Xrotation Yrotation Zrotation
											JOINT leftHandRing4
											{
												OFFSET 2.644302 0.000000 0.000000
												CHANNELS 3 Xrotation Yrotation Zrotation
												End Site
												{
													OFFSET 2.644302 0.000000 0.000083
												}
											}
										}
									}
								}
								JOINT leftLittleProximal
								{
									OFFSET 8.077805 -0.486893 -3.806302
									CHANNELS 6 Xposition Yposition Zposition Xrotation Yrotation Zrotation
									JOINT leftLittleIntermediate
									{
										OFFSET 3.600006 0.000000 0.000000
										CHANNELS 3 Xrotation Yrotation Zrotation
										JOINT leftLittleDistal
										{
											OFFSET 2.099998 0.000000 0.000000
											CHANNELS 3 Xrotation Yrotation Zrotation
											JOINT leftHandPinky4
											{
												OFFSET 2.125496 0.000000 0.000000
												CHANNELS 3 Xrotation Yrotation Zrotation
												End Site
												{
													OFFSET 2.125504 0.000000 -0.001254
												}
											}
										}
									}
								}
							}
						}
					}
				}
			}
		}
	}
	JOINT rightUpperLeg
	{
		OFFSET -8.207800 -6.751701 -1.599544
		CHANNELS 6 Xposition Yposition Zposition Xrotation Yrotation Zrotation
		JOINT rightLowerLeg
		{
			OFFSET 0.000004 -44.370152 0.345934
			CHANNELS 3 Xrotation Yrotation Zrotation
			JOINT rightFoot
			{
				OFFSET 0.000004 -44.423664 -3.043535
				CHANNELS 3 Xrotation Yrotation Zrotation
				JOINT rightToes
				{
					OFFSET 0.000001 -8.728691 10.710592
					CHANNELS 3 Xrotation Yrotation Zrotation
					JOINT rightToesEnd
					{
						OFFSET 0.000000 -0.000665 9.278101
						CHANNELS 3 Xrotation Yrotation Zrotation
						End Site
						{
							OFFSET 0.000000 -0.000665 9.278103
						}
					}
				}
			}
		}
	}
	JOINT leftUpperLeg
	{
		OFFSET 8.207800 -6.751701 -1.599544
		CHANNELS 6 Xposition Yposition Zposition Xrotation Yrotation Zrotation
		JOINT leftLowerLeg
		{
			OFFSET 0.000004 -44.370037 0.346940
			CHANNELS 3 Xrotation Yrotation Zrotation
			JOINT leftFoot
			{
				OFFSET 0.000004 -44.423611 -3.044388
				CHANNELS 3 Xrotation Yrotation Zrotation
				JOINT leftToes
				{
					OFFSET 0.000001 -8.728690 10.710592
					CHANNELS 3 Xrotation Yrotation Zrotation
					JOINT leftToesEnd
					{
						OFFSET 0.000000 -0.000680 9.278101
						CHANNELS 3 Xrotation Yrotation Zrotation
						End Site
						{
							OFFSET 0.000000 -0.000680 9.278101
						}
					}
				}
			}
		}
	}
}
MOTION
Frames: 4
Frame Time: 0.033333
-0.219275 98.988914 0.388611 5.021233 -3.709366 8.535847 -0.000001 10.181567 0.131524 6.015290 -1.813555 2.180436 12.141533 -3.100137 5.546403 12.141522 -3.100138 5.546400 0.000002 16.740372 -2.049017 9.725694 -9.957291 6.975682 -0.000007 9.617854 1.684987 12.412800 -8.701621 -4.539872 -0.000006 22.037369 7.501082 0.000001 -0.000000 0.000001 -4.569994 11.014894 -2.160844 -30.181643 22.157018 -11.514523 -59.220097 -7.868976 46.263323 6.495308 123.990336 -5.392232 -26.654164 1.997383 -5.326876 -2.464798 -1.573993 2.681918 -28.609567 -10.644832 0.170605 0.941272 -1.290257 0.235497 -2.646277 -1.527803 1.527803 -0.000004 0.000004 -0.000007 -1.994574 -1.151581 1.151574 0.000005 -0.000004 -0.000004 -9.108310 -0.517873 2.259802 -3.993860 -6.999525 18.566609 0.402642 -1.732413 30.432130 -0.000004 0.000001 -0.000005 -0.000000 0.000001 0.000000 -9.532495 0.000006 0.000000 1.179053 -4.694148 25.563349 -0.268810 1.048409 19.743927 -0.000000 0.000000 0.000001 0.000000 0.000000 0.000002 -9.103587 -0.043098 -1.865100 -0.500099 -6.227273 31.110883 1.398943 0.254767 14.962542 -0.000007 0.000006 0.000009 0.000000 0.000001 0.000002 -8.076672 -0.486712 -3.806299 2.384807 -6.017409 33.822301 -0.305303 1.288873 11.805874 -0.000001 0.000002 0.000016 -0.000001 0.000000 0.000002 4.570406 11.014705 -2.160815 -31.343571 -18.805666 8.317904 -49.879277 -0.374706 -75.978130 -0.181368 -125.457871 -0.148128 -10.229938 -3.269418 20.083640 2.466100 -1.576208 2.681707 -48.512368 13.157086 -3.971852 5.849541 14.755449 1.800834 2.647893 -1.528753 1.528762 -0.000005 0.000016 -0.000012 1.998924 -1.154060 1.154072 0.000001 -0.000002 -0.000000 9.109291 -0.518004 2.259899 -8.053853 8.573586 -26.955545 0.740321 1.852072 -22.932447 -0.000001 -0.000000 0.000000 -0.000001 0.000000 -0.000002 9.533413 0.000007 -0.000003 -0.697603 0.625148 -32.061755 -0.334591 -1.124270 -27.158302 0.000001 0.000001 -0.000000 0.000001 0.000001 -0.000001 9.104506 -0.042999 -1.865101 -1.376001 1.579529 -35.064169 -0.336768 -0.826062 -21.997119 0.000001 -0.000000 -0.000001 0.000002 -0.000002 -0.000001 8.077806 -0.486887 -3.806304 3.025538 -1.499679 -40.467378 -0.114744 -1.334798 -8.145119 -0.000009 -0.000012 -0.000017 -0.000001 -0.000004 -0.000001 -8.207802 -6.751685 -1.599539 -32.259171 4.518280 -11.426542 35.697717 0.269824 1.405441 -7.788512 -6.850154 2.622993 -0.656439 2.946460 -0.470077 0.000000 0.000000 0.000000 8.207798 -6.751680 -1.599546 -16.210996 26.695111 3.367482 29.266117 -0.325976 -1.039456 -17.318797 -8.156081 -3.026593 -0.863770 5.269184 -2.976978 -0.000000 0.000001 -0.000000 
-0.207749 98.977112 0.421982 4.890307 -4.128367 8.594790 -0.000001 10.181545 0.131526 5.857657 -1.808012 2.170114 11.826006 -3.103355 5.526198 11.826001 -3.103354 5.526200 0.000002 16.740358 -2.049018 9.629391 -9.975289 6.959887 0.000006 9.617856 1.684958 12.486977 -8.672208 -4.549044 -0.000002 22.037354 7.501054 -0.000001 -0.000000 -0.000001 -4.570001 11.014864 -2.160843 -30.564704 21.829430 -10.513173 -59.281876 -6.540596 46.109323 6.548786 123.607108 -5.461174 -26.648251 1.947520 -5.448443 -2.464787 -1.573986 2.681916 -28.609555 -10.644831 0.170629 0.941245 -1.290261 0.235497 -2.646284 -1.527798 1.527822 -0.000006 0.000001 -0.000007 -1.994607 -1.151582 1.151580 0.000000 -0.000003 0.000003 -9.108291 -0.517888 2.259802 -3.993856 -6.999524 18.566609 0.402636 -1.732414 30.432140 -0.000002 0.000002 -0.000005 0.000001 0.000001 -0.000002 -9.532492 0.000003 -0.000001 1.179060 -4.694143 25.563346 -0.268818 1.048411 19.743954 0.000000 -0.000000 0.000004 0.000000 -0.000000 0.000004 -9.103587 -0.043106 -1.865100 -0.500077 -6.227276 31.110917 1.398923 0.254781 14.962542 -0.000007 0.000005 0.000012 0.000000 0.000000 0.000008 -8.076710 -0.486723 -3.806298 2.384810 -6.017410 33.822339 -0.305304 1.288873 11.805855 -0.000002 0.000001 0.000014 -0.000000 -0.000001 0.000001 4.570399 11.014697 -2.160812 -30.729591 -18.687548 7.887844 -50.743422 -0.960390 -75.657514 -0.200945 -125.431547 -0.164145 -10.167901 -3.020773 20.094881 2.466088 -1.576207 2.681691 -48.512354 13.157079 -3.971846 5.849544 14.755463 1.800814 2.647884 -1.528750 1.528743 -0.000003 0.000013 -0.000011 1.998894 -1.154060 1.154062 0.000000 -0.000001 -0.000000 9.109314 -0.518003 2.259898 -8.053848 8.573586 -26.955531 0.740328 1.852085 -22.932447 0.000000 0.000003 -0.000000 0.000001 0.000001 -0.000001 9.533411 0.000011 -0.000002 -0.697601 0.625159 -32.061745 -0.334587 -1.124266 -27.158314 0.000000 0.000003 0.000000 0.000000 0.000001 -0.000001 9.104521 -0.042989 -1.865101 -1.376007 1.579530 -35.064156 -0.336767 -0.826061 -21.997114 0.000000 0.000002 0.000000 0.000002 0.000002 -0.000000 8.077816 -0.486883 -3.806302 3.025537 -1.499672 -40.467365 -0.114746 -1.334798 -8.145137 -0.000009 -0.000012 -0.000013 0.000000 -0.000001 -0.000000 -8.207803 -6.751715 -1.599539 -32.187680 4.525945 -11.425651 35.766405 0.273580 1.407963 -7.817388 -6.450944 2.585696 -0.532110 2.531255 -0.381846 -0.000000 -0.000001 0.000000 8.207799 -6.751700 -1.599543 -15.942039 26.674009 3.262990 29.283507 -0.331854 -1.040276 -17.405762 -7.715207 -3.004980 -0.852008 4.821488 -2.737411 0.000000 -0.000002 0.000000 
-0.229570 98.942543 0.461888 4.809674 -4.614304 8.665816 0.000001 10.181556 0.131525 5.675840 -1.785394 2.139320 11.460415 -3.075227 5.463359 11.460417 -3.075231 5.463348 0.000003 16.740360 -2.049028 9.438749 -9.981624 6.811085 -0.000001 9.617821 1.684981 12.647295 -8.613070 -4.462115 -0.000001 22.037384 7.501059 0.000001 -0.000001 -0.000000 -4.569998 11.014891 -2.160843 -30.970786 21.482454 -9.446363 -59.295413 -5.102734 45.934276 6.588011 123.193841 -5.520409 -26.660708 1.964476 -5.609552 -2.464789 -1.573988 2.681915 -28.609560 -10.644840 0.170636 0.941264 -1.290257 0.235477 -2.646258 -1.527812 1.527814 -0.000006 0.000004 -0.000005 -1.994597 -1.151572 1.151570 -0.000001 -0.000001 -0.000000 -9.108298 -0.517866 2.259799 -3.993864 -6.999525 18.566607 0.402632 -1.732421 30.432140 -0.000002 0.000002 -0.000003 -0.000000 0.000001 0.000001 -9.532507 0.000014 -0.000004 1.179057 -4.694143 25.563335 -0.268826 1.048409 19.743931 -0.000001 -0.000001 0.000004 -0.000000 -0.000001 0.000005 -9.103579 -0.043102 -1.865103 -0.500097 -6.227283 31.110880 1.398933 0.254779 14.962550 -0.000008 0.000005 0.000013 -0.000001 0.000000 0.000005 -8.076708 -0.486724 -3.806301 2.384804 -6.017420 33.822339 -0.305304 1.288876 11.805840 -0.000001 0.000003 0.000013 -0.000000 -0.000001 0.000001 4.570401 11.014696 -2.160825 -30.066462 -18.589958 7.384478 -51.649190 -1.618693 -75.212978 -0.247552 -125.428706 -0.202095 -10.126134 -2.756602 20.148626 2.466094 -1.576208 2.681704 -48.512371 13.157077 -3.971851 5.849518 14.755451 1.800850 2.647919 -1.528748 1.528763 -0.000007 0.000014 -0.000013 1.998924 -1.154108 1.154082 0.000001 0.000004 0.000003 9.109299 -0.518008 2.259899 -8.053854 8.573585 -26.955548 0.740323 1.852099 -22.932446 -0.000003 0.000001 -0.000001 -0.000002 0.000001 -0.000002 9.533404 0.000003 0.000002 -0.697605 0.625151 -32.061755 -0.334586 -1.124274 -27.158309 0.000002 -0.000000 0.000001 0.000001 -0.000002 0.000002 9.104498 -0.042990 -1.865101 -1.376018 1.579532 -35.064159 -0.336757 -0.826065 -21.997125 0.000000 0.000001 0.000000 0.000001 0.000007 -0.000000 8.077802 -0.486893 -3.806302 3.025523 -1.499679 -40.467385 -0.114731 -1.334789 -8.145111 -0.000010 -0.000011 -0.000013 0.000001 0.000004 -0.000003 -8.207805 -6.751696 -1.599539 -32.205039 4.604061 -11.373774 35.917506 0.281312 1.413503 -7.884180 -6.052351 2.527338 -0.403231 2.075638 -0.289829 -0.000000 -0.000000 -0.000000 8.207800 -6.751694 -1.599542 -15.756657 26.675044 3.198276 29.376855 -0.336083 -1.043424 -17.534786 -7.231600 -3.002339 -0.841657 4.343429 -2.475822 0.000000 -0.000001 0.000000 
-0.274062 98.892784 0.513288 4.729039 -5.146731 8.757733 0.000001 10.181557 0.131524 5.481548 -1.752546 2.096144 11.068938 -3.028049 5.377189 11.068938 -3.028050 5.377186 0.000001 16.740376 -2.049034 9.170570 -10.003156 6.471025 0.000005 9.617846 1.684981 12.864202 -8.585351 -4.246603 0.000002 22.037354 7.501087 0.000002 0.000000 -0.000002 -4.570002 11.014868 -2.160841 -31.390904 21.087521 -8.381644 -59.313677 -3.596172 45.837669 6.619127 122.735453 -5.575814 -26.639987 1.970618 -5.676267 -2.464801 -1.573988 2.681923 -28.609560 -10.644834 0.170622 0.941273 -1.290245 0.235490 -2.646276 -1.527811 1.527815 -0.000005 0.000004 -0.000007 -1.994582 -1.151582 1.151570 0.000001 0.000001 -0.000000 -9.108310 -0.517871 2.259801 -3.993861 -6.999524 18.566609 0.402651 -1.732412 30.432126 -0.000003 0.000002 -0.000004 -0.000001 -0.000001 -0.000003 -9.532496 0.000018 -0.000003 1.179052 -4.694136 25.563334 -0.268812 1.048404 19.743963 -0.000000 0.000001 0.000002 0.000001 0.000001 0.000004 -9.103594 -0.043089 -1.865104 -0.500089 -6.227279 31.110907 1.398937 0.254784 14.962549 -0.000007 0.000005 0.000014 -0.000001 0.000001 0.000002 -8.076700 -0.486730 -3.806300 2.384812 -6.017418 33.822318 -0.305295 1.288880 11.805868 -0.000002 0.000003 0.000015 -0.000001 0.000001 -0.000002 4.570397 11.014688 -2.160820 -29.363758 -18.559361 6.756063 -52.568230 -2.362129 -74.599791 -0.317219 -125.449798 -0.258801 -10.126952 -2.528576 20.322241 2.466113 -1.576210 2.681700 -48.512351 13.157081 -3.971856 5.849532 14.755461 1.800830 2.647889 -1.528750 1.528745 -0.000004 0.000016 -0.000010 1.998921 -1.154096 1.154067 -0.000002 0.000001 0.000001 9.109298 -0.518006 2.259894 -8.053839 8.573597 -26.955541 0.740321 1.852064 -22.932449 -0.000002 0.000003 -0.000001 -0.000001 -0.000001 0.000000 9.533420 0.000008 -0.000003 -0.697593 0.625158 -32.061755 -0.334584 -1.124273 -27.158302 0.000000 0.000001 -0.000001 -0.000001 -0.000001 -0.000002 9.104521 -0.042987 -1.865101 -1.375994 1.579530 -35.064149 -0.336763 -0.826058 -21.997130 0.000000 -0.000001 0.000000 0.000000 0.000002 -0.000000 8.077821 -0.486883 -3.806305 3.025537 -1.499678 -40.467375 -0.114744 -1.334799 -8.145130 -0.000011 -0.000012 -0.000012 -0.000001 -0.000002 -0.000000 -8.207802 -6.751711 -1.599541 -32.251959 4.707867 -11.314385 36.139337 0.292957 1.421642 -7.991262 -5.625342 2.452272 -0.269162 1.585503 -0.192209 0.000000 -0.000000 0.000000 8.207799 -6.751692 -1.599542 -15.568653 26.643892 3.121522 29.510461 -0.339113 -1.047774 -17.694539 -6.669091 -3.009502 -0.832315 3.867019 -2.210102 0.000000 -0.000001 0.000000 
